<svg id="Layer_1" enable-background="new 0 0 512 512" height="512" viewBox="0 0 512 512" width="512" xmlns="http://www.w3.org/2000/svg"><g><g><path d="m424.045 406.414c0 33.01-26.97 59.7-60.07 59.24-4.52-.06-8.91-.63-13.14-1.66-25.69-6.27-44.96-29.44-45.27-56.9-.07-6.6.93-12.96 2.85-18.91 5.54-17.13 8.85-34.88 10.21-52.8.48-6.43.72-12.89.72-19.35v-9.93l45.458-20 45.462 20v7.3c0 7.33.29 14.67.88 21.98 1.44 18.06 4.74 35.95 10.19 53.26 1.76 5.61 2.71 11.58 2.71 17.77z" fill="#e9fbff"/><path d="m424.045 406.414c0 33.01-26.97 59.7-60.07 59.24-4.52-.06-8.91-.63-13.14-1.66 25.95-6.29 45.21-29.68 45.21-57.58 0-6.19-.95-12.16-2.71-17.77-5.45-17.31-8.75-35.2-10.19-53.26-.59-7.31-.88-14.65-.88-21.98v-7.3h28v7.3c0 7.33.29 14.67.88 21.98 1.44 18.06 4.74 35.95 10.19 53.26 1.76 5.61 2.71 11.58 2.71 17.77z" fill="#d0edf5"/></g><g><path d="m504.42 255.485c-1.47 28.2-24.8 50.61-53.36 50.61h-161.5c-16.86 0-31.89-7.81-41.69-20-7.35-9.16-11.75-20.78-11.75-33.44 0-55.15 41.72-100.56 95.32-106.39h77.74c18.99 2.06 36.49 9.1 51.17 19.78l20.35 41.3z" fill="#f98562"/><path d="m504.42 255.485c-1.47 28.2-24.8 50.61-53.36 50.61h-161.5c-16.86 0-31.89-7.81-41.69-20h182.4c29.51 0 53.44-23.92 53.44-53.44 0-8.72-1.04-17.19-3.01-25.31z" fill="#f4604c"/><path d="m504.5 252.655c0 .95-.02 1.89-.08 2.83-5.28 1.9-10.97 2.93-16.9 2.93-3.39 0-6.7-.34-9.9-.98-22.97-4.59-40.28-24.88-40.28-49.2 0-17.7 9.16-33.26 23.01-42.19.09.07.18.13.27.21 26.61 19.45 43.88 50.91 43.88 86.4z" fill="#e9fbff"/><path d="m504.5 252.655c0 .95-.02 1.89-.08 2.83-5.28 1.9-10.97 2.93-16.9 2.93-3.39 0-6.7-.34-9.9-.98 3.89-7.41 6.09-15.84 6.09-24.78 0-25.09-8.63-48.16-23.09-66.4 26.61 19.45 43.88 50.91 43.88 86.4z" fill="#d0edf5"/></g><path d="m270.224 389.577c0 42.03-34.07 76.09-76.09 76.09-.35 0-.71-.01-1.06-.01-5.98-.08-11.81-.86-17.39-2.28-32.73-8.23-57.23-37.85-57.62-72.93-.09-8.48 1.2-16.65 3.67-24.29 7.11-21.99 11.35-44.78 13.1-67.81.62-8.25.93-16.54.93-24.84v-12.76h116.76v9.38c0 9.42.36 18.84 1.12 28.22 1.86 23.2 6.1 46.17 13.09 68.4 2.26 7.2 3.49 14.88 3.49 22.83z" fill="#e9fbff"/><path d="m270.224 389.577c0 42.03-34.07 76.09-76.09 76.09-.35 0-.71-.01-1.06-.01-5.98-.08-11.81-.86-17.39-2.28 33.06-8.27 57.54-38.17 57.54-73.8 0-7.95-1.23-15.63-3.49-22.83-6.99-22.23-11.23-45.2-13.09-68.4-.76-9.38-1.12-18.8-1.12-28.22v-9.38h37v9.38c0 9.42.36 18.84 1.12 28.22 1.86 23.2 6.1 46.17 13.09 68.4 2.26 7.2 3.49 14.88 3.49 22.83z" fill="#d0edf5"/><path d="m380.784 189.347c0 39.44-31.97 71.4-71.4 71.4h-230.48c-20.76 0-39.45-8.86-52.48-23-3.3-3.57-6.24-7.47-8.75-11.66-6.46-10.73-10.17-23.3-10.17-36.74 0-33.59 11.58-64.48 30.97-88.88 20.76-26.14 50.47-44.84 84.49-51.48 8.92-1.74 18.13-2.65 27.55-2.65h87.26c17.68 0 34.61 3.21 50.24 9.07 4.46 1.68 8.82 3.57 13.06 5.67 30.82 15.24 55.36 41.26 68.68 73.13 7.11 16.97 11.03 35.6 11.03 55.14z" fill="#f98562"/><path d="m380.784 189.347c0 39.44-31.97 71.4-71.4 71.4h-230.48c-20.76 0-39.45-8.86-52.48-23h242.96c39.43 0 71.4-31.96 71.4-71.4 0-19.54-3.92-38.17-11.03-55.14-9.15-21.89-23.6-41.03-41.74-55.8 4.46 1.68 8.82 3.57 13.06 5.67 30.82 15.24 55.36 41.26 68.68 73.13 7.11 16.97 11.03 35.6 11.03 55.14z" fill="#f4604c"/><g fill="#e9fbff"><path d="m114.984 243.687c0 5.99-1.05 11.74-2.98 17.06h-33.1c-20.76 0-39.45-8.86-52.48-23-3.3-3.57-6.24-7.47-8.75-11.66 7.13-19.07 25.51-32.64 47.07-32.64 25.73 0 46.95 19.35 49.89 44.3.23 1.95.35 3.93.35 5.94z"/><path d="m369.754 134.207c-7.75 8.15-18.23 13.7-29.96 15.21-2.11.27-4.26.41-6.45.41-27.75 0-50.24-22.49-50.24-50.24 0-13.84 5.6-26.38 14.66-35.47 1.06-1.06 2.16-2.08 3.31-3.04 30.82 15.24 55.36 41.26 68.68 73.13z"/><path d="m126.364 67.187c0 27.75-22.49 50.24-50.24 50.24-14.99 0-28.43-6.56-37.65-16.96 20.76-26.14 50.47-44.84 84.49-51.48 2.2 5.65 3.4 11.78 3.4 18.2z"/><circle cx="193.659" cy="162.857" r="45.321"/></g><path d="m114.634 237.747c.23 1.95.35 3.93.35 5.94 0 5.99-1.05 11.74-2.98 17.06h-33.1c-20.76 0-39.45-8.86-52.48-23z" fill="#d0edf5"/><path d="m369.754 134.207c-7.75 8.15-18.23 13.7-29.96 15.21-1.58-13.39-5.01-26.22-10.04-38.21-7.44-17.81-18.39-33.8-31.99-47.09 1.06-1.06 2.16-2.08 3.31-3.04 30.82 15.24 55.36 41.26 68.68 73.13z" fill="#d0edf5"/></g><g><path d="m261.122 297.747c-.728-9.024-1.097-18.318-1.097-27.624v-1.872h49.36c43.505 0 78.9-35.395 78.9-78.9 0-40.203-15.655-78-44.083-106.428s-66.225-44.084-106.428-44.084h-87.261c-82.994 0-150.513 67.52-150.513 150.512 0 43.506 35.395 78.9 78.9 78.9h49.36v5.259c0 8.149-.305 16.316-.906 24.274-1.749 23.073-6.041 45.302-12.758 66.072-2.771 8.578-4.127 17.551-4.031 26.673.245 21.828 8.933 42.427 24.464 58.001 15.533 15.577 36.109 24.321 57.938 24.621.398.006.793.009 1.19.009 22.112 0 42.909-8.521 58.673-24.069 16.052-15.832 24.892-36.968 24.892-59.515 0-8.55-1.291-16.987-3.836-25.077-6.606-21.013-10.901-43.47-12.764-66.752zm99.672-165.393c-7.673 6.465-17.257 9.976-27.454 9.976-23.567 0-42.741-19.174-42.741-42.741 0-11.043 4.235-21.532 11.757-29.442 11.341 6.164 21.857 14.001 31.239 23.383 11.442 11.442 20.585 24.57 27.199 38.824zm-242.958-74.532c.682 3.054 1.027 6.186 1.027 9.367 0 23.567-19.173 42.74-42.74 42.74-10.072 0-19.761-3.565-27.4-9.941 17.945-20.416 41.92-35.408 69.113-42.166zm-91.712 167.519c7.02-14.731 22.104-24.397 38.617-24.397 23.567 0 42.74 19.173 42.74 42.74 0 3.246-.36 6.448-1.073 9.567h-27.508c-21.897 0-41.257-11.071-52.776-27.91zm216.173 213.07c-13.167 12.986-30.587 19.955-49.124 19.742-36.866-.507-67.196-30.918-67.61-67.786-.079-7.496 1.034-14.865 3.306-21.898 7.081-21.895 11.604-45.296 13.442-69.553.63-8.334.949-16.882.949-25.406v-5.259h21.052c4.142 0 7.5-3.357 7.5-7.5s-3.358-7.5-7.5-7.5h-42.621c.525-3.145.79-6.341.79-9.567 0-31.838-25.902-57.74-57.74-57.74-18.553 0-35.771 9.035-46.496 23.527-2.105-6.329-3.245-13.094-3.245-20.12 0-28.825 9.047-55.577 24.45-77.565 10.264 8.435 23.215 13.144 36.672 13.144 31.838 0 57.74-25.902 57.74-57.74 0-4.125-.431-8.193-1.284-12.167 5.869-.779 11.855-1.182 17.934-1.182h87.261c17.576 0 34.641 3.324 50.477 9.673-8.135 10.153-12.651 22.819-12.651 36.076 0 31.839 25.902 57.741 57.741 57.741 12.097 0 23.555-3.657 33.186-10.46 4.448 13.528 6.759 27.827 6.759 42.481 0 35.234-28.666 63.9-63.9 63.9h-110.242c-4.142 0-7.5 3.357-7.5 7.5s3.358 7.5 7.5 7.5h45.882v1.872c0 9.706.386 19.406 1.146 28.826 1.953 24.396 6.463 47.963 13.407 70.05 2.087 6.633 3.145 13.557 3.145 20.577-.001 18.5-7.255 35.843-20.426 48.834z"/><path d="m409.991 138.809c-4.125-.451-7.819 2.527-8.267 6.646-.448 4.117 2.527 7.818 6.645 8.267 14.239 1.549 27.491 6.039 39.182 12.829-11.24 10.782-17.713 25.703-17.713 41.629 0 31.838 25.902 57.74 57.741 57.74 2.561 0 5.103-.167 7.615-.498-5.545 19.14-23.231 33.174-44.135 33.174h-161.498c-4.142 0-7.5 3.357-7.5 7.5s3.358 7.5 7.5 7.5h22.288v2.437c0 6.294-.236 12.613-.701 18.777-1.353 17.838-4.67 35.019-9.86 51.066-2.212 6.853-3.295 14.017-3.219 21.3.403 35.888 29.922 65.485 65.804 65.979.318.005.633.007.951.007 17.657 0 34.265-6.805 46.854-19.221 12.818-12.643 19.878-29.521 19.878-47.525 0-6.823-1.03-13.561-3.063-20.027-5.107-16.247-8.428-33.611-9.869-51.615-.558-6.914-.843-14.038-.848-21.177h33.285c33.603 0 60.94-27.338 60.94-60.94-.001-58.58-43.856-107.523-102.01-113.848zm-8.848 304.451c-9.935 9.798-23.109 15.066-37.064 14.896-27.815-.383-50.699-23.327-51.011-51.144-.059-5.657.78-11.218 2.493-16.524 5.554-17.173 9.102-35.524 10.544-54.547.494-6.541.744-13.24.744-19.909v-2.436h75.925c.005 7.54.307 15.068.897 22.378 1.53 19.118 5.066 37.593 10.511 54.911 1.574 5.009 2.373 10.233 2.373 15.528-.001 13.959-5.474 27.045-15.412 36.847zm43.695-235.081c0-12.833 5.679-24.785 15.408-32.866 21.883 17.769 35.9 44.612 36.715 74.575-3.061.685-6.2 1.031-9.382 1.031-23.567 0-42.741-19.173-42.741-42.74z"/><path d="m217.081 210.213c3.711-1.839 5.229-6.339 3.391-10.05-1.839-3.713-6.338-5.23-10.05-3.392-5.232 2.593-10.873 3.907-16.763 3.907-20.854 0-37.821-16.967-37.821-37.822 0-20.854 16.967-37.821 37.821-37.821s37.821 16.967 37.821 37.821c0 3.935-.599 7.808-1.781 11.512-1.259 3.946.919 8.166 4.865 9.425 3.948 1.262 8.167-.919 9.425-4.864 1.653-5.181 2.491-10.588 2.491-16.072 0-29.126-23.695-52.821-52.821-52.821s-52.821 23.695-52.821 52.821 23.695 52.822 52.821 52.822c8.221 0 16.101-1.839 23.422-5.466z"/></g></svg>