<svg viewBox="0 0 580 400" width="580" height="400" xmlns="http://www.w3.org/2000/svg">
 <g>
  <title>Layer 1</title>
  <metadata></metadata>
  <g id="svg_126">
   <g id="svg_105" fill="#000000" transform="matrix(0.0497995, 0, 0, -0.0497995, -100.925, 440.695)">
    <path id="svg_106" d="m3415.393066,6033.130859c-39,-45 -83,-63 -218,-85c-154,-26 -247,-46 -283,-62c-18,-8 -39,-14 -47,-14c-9,0 -23,-4 -33,-9c-9,-5 -61,-29 -114,-54c-92,-43 -127,-65 -273,-169c-33,-24 -80,-52 -105,-62c-67,-29 -67,-33 0,-35c33,0 81,-6 105,-11c24,-5 51,-7 60,-3c11,4 26,-4 43,-22c24,-26 29,-27 91,-22c36,3 93,13 126,22c132,37 174,45 266,51c61,4 127,2 180,-6c84,-13 196,-45 214,-61c12,-12 62,-12 69,0c8,12 86,37 176,55c124,26 277,19 400,-19c100,-31 200,-46 260,-39c47,5 58,9 50,19c-6,7 -7,15 -3,18c5,3 61,9 126,12c64,4 117,10 117,14c0,3 -19,15 -43,26c-23,11 -91,55 -152,98c-114,82 -165,111 -275,160c-126,55 -152,63 -385,107c-204,38 -207,39 -260,88c-25,23 -49,42 -53,41c-4,0 -22,-18 -39,-38zm47,-303c201,8 313,3 397,-18c108,-26 242,-70 249,-82c3,-4 12,-8 20,-8c8,0 38,-12 67,-26c28,-15 69,-29 90,-33c47,-7 45,-26 -3,-25c-33,1 -64,10 -137,41c-17,7 -36,13 -42,13c-6,0 -43,11 -83,24c-158,51 -274,60 -543,45c-11,0 -82,3 -158,7c-183,9 -288,-10 -583,-108c-64,-22 -100,-29 -120,-24c-22,6 -25,9 -13,17c7,5 28,9 45,9c17,0 37,7 44,15c7,8 17,15 22,15c5,0 35,12 66,26c31,14 89,37 127,49c184,60 288,77 425,67c47,-3 105,-5 130,-4z"/>
    <path id="svg_107" d="m2917.393066,5505.130859c-33,-2 -67,-10 -75,-18c-8,-7 -24,-15 -35,-17c-11,-2 20,-7 68,-11c49,-4 98,-12 110,-19c22,-12 29,-13 162,-48c104,-26 279,-38 290,-20c14,22 -73,93 -140,114c-59,18 -254,28 -380,19z"/>
    <path id="svg_108" d="m3722.393066,5505.130859c-75,-7 -151,-37 -196,-76c-63,-55 -59,-67 24,-66c110,1 214,20 345,64c49,16 110,27 164,30c81,5 129,15 69,15c-15,0 -37,6 -49,14c-22,13 -276,27 -357,19z"/>
    <path id="svg_109" d="m2302.393066,5492.130859c0,-5 15,-30 34,-54c19,-25 40,-64 48,-88c38,-109 48,-148 48,-176c0,-17 5,-43 11,-59c6,-15 15,-53 19,-83c25,-171 157,-422 277,-525c69,-60 203,-197 203,-207c0,-5 5,-8 10,-8c20,0 9,26 -40,95c-213,299 -250,378 -270,570c-23,229 -39,293 -91,370c-38,57 -74,88 -154,134c-70,41 -95,49 -95,31z"/>
    <path id="svg_110" d="m4582.393066,5492.130859c-8,-5 -31,-16 -50,-25c-50,-22 -154,-124 -179,-175c-30,-62 -50,-149 -62,-265c-16,-169 -33,-240 -78,-335c-29,-60 -128,-213 -183,-280c-42,-52 -43,-52 -61,-89c-25,-50 -13,-50 30,-1c21,24 99,104 173,179c126,127 139,143 187,241c69,139 102,239 123,374c27,170 72,297 124,345c14,14 26,28 26,33c0,10 -31,9 -50,-2z"/>
    <path id="svg_111" d="m5172.393066,4832.130859l0,-540l105,0l105,0l0,386c0,257 3,385 10,382c6,-2 95,-85 199,-185l188,-182l194,186l194,187l3,-387l2,-387l110,0l110,0l0,540l0,540l-112,0l-112,0l-192,-197l-192,-198l-199,198l-198,197l-108,0l-107,0l0,-540z"/>
    <path id="svg_112" d="m10112.392578,4832.130859l0,-542l283,4c248,4 292,8 362,26c278,75 425,254 425,517c-1,217 -94,374 -273,459c-134,63 -170,69 -499,73l-298,5l0,-542zm578,340c107,-25 195,-92 236,-179c17,-38 21,-65 21,-156c0,-100 -2,-115 -28,-167c-34,-70 -100,-130 -176,-160c-49,-19 -79,-22 -238,-26l-183,-4l0,351l0,351l163,0c89,0 181,-5 205,-10z"/>
    <path id="svg_113" d="m2685.393066,5317.130859c-3,-9 -3,-98 0,-198c5,-180 19,-277 53,-355c8,-18 14,-40 14,-50c0,-9 25,-46 56,-82c30,-36 81,-109 112,-163c31,-53 61,-96 67,-94c10,4 17,33 37,153c9,53 9,88 1,135c-19,105 -25,119 -108,244c-92,139 -164,276 -190,364c-19,61 -31,74 -42,46z"/>
    <path id="svg_114" d="m2835.393066,5305.130859c-19,-13 -23,-25 -23,-72c0,-69 20,-108 112,-224c89,-112 126,-187 143,-289c22,-137 35,-176 62,-198c14,-11 31,-20 38,-20c19,0 42,32 58,80c24,72 28,111 28,262c-1,162 -22,271 -63,315c-26,28 -89,63 -113,63c-22,0 -135,57 -161,81c-24,23 -51,24 -81,2z"/>
    <path id="svg_115" d="m3970.393066,5284.130859c-40,-33 -100,-62 -132,-62c-28,0 -95,-47 -119,-83c-42,-65 -65,-303 -42,-447c22,-141 68,-215 112,-178c21,17 49,84 58,138c27,165 52,224 141,335c94,118 124,174 124,236c0,88 -73,120 -142,61z"/>
    <path id="svg_116" d="m4208.393066,5300.130859c-27,-94 -109,-259 -185,-371c-82,-122 -97,-151 -115,-218c-15,-59 -16,-78 -5,-170c19,-170 36,-187 90,-91c18,31 60,98 94,147c106,154 125,206 151,405c20,165 12,310 -17,310c-5,0 -11,-6 -13,-12z"/>
    <path id="svg_117" d="m3410.393066,5249.130859c-34,-28 -63,-85 -82,-162c-21,-84 -28,-162 -32,-369c-3,-172 -3,-179 -28,-215c-27,-39 -33,-61 -16,-61c13,0 90,-77 90,-90c0,-13 53,-60 68,-60c7,0 15,-7 18,-15c4,-8 16,-15 29,-15c12,0 28,7 35,15c7,8 18,15 24,15c15,0 76,62 76,77c0,7 20,29 45,50c25,20 45,42 45,47c0,5 -12,23 -27,39l-28,28l-6,242c-5,203 -9,255 -27,321c-42,154 -113,213 -184,153z"/>
    <path id="svg_118" d="m6982.393066,5115.130859c-61,-10 -155,-48 -210,-84c-69,-47 -110,-95 -148,-176c-23,-50 -27,-71 -27,-154c0,-90 2,-99 38,-171c80,-162 241,-248 467,-248c163,0 283,43 380,136c243,231 116,607 -232,689c-58,13 -208,18 -268,8zm274,-203c85,-41 136,-120 136,-212c-1,-69 -27,-125 -80,-171c-58,-49 -127,-71 -221,-70c-185,2 -311,132 -279,287c13,64 69,135 132,167c80,41 227,41 312,-1z"/>
    <path id="svg_119" d="m8150.393066,5106.130859c-32,-7 -80,-25 -107,-39c-28,-14 -53,-25 -56,-25c-3,0 -5,16 -5,35l0,35l-100,0l-100,0l0,-410l0,-410l100,0l100,0l0,273c0,315 -7,291 105,344c53,25 71,28 159.999512,28c92,0 104,-2 148,-28c57,-34 101,-97 116,-168c6,-28 11,-140 11,-249l0,-200l100,0l100,0l0,230c0,307 -16,374 -110,474c-82,86 -189,127 -333,125c-40,0 -97.999512,-7 -128.999512,-15z"/>
    <path id="svg_120" d="m9282.392578,5115.130859c-61,-10 -155,-48 -210,-84c-69,-47 -110,-95 -148,-176c-23,-50 -27,-71 -27,-154c0,-90 2,-99 38,-171c80,-162 241,-248 467,-248c163,0 283,43 380,136c243,231 116,607 -232,689c-58,13 -208,18 -268,8zm274,-203c85,-41 136,-120 136,-212c-1,-69 -27,-125 -80,-171c-58,-49 -127,-71 -221,-70c-185,2 -311,132 -279,287c13,64 69,135 132,167c80,41 227,41 312,-1z"/>
    <path id="svg_121" d="m11650.392578,5107.130859c-142,-36 -255,-124 -311,-243c-29,-61 -32,-76 -32,-162c0,-86 3,-101 32,-162c41,-87 105,-151 196,-194c97,-45 188,-64 325,-64c124,0 237,19 312,53l48,22l-31,70c-17,39 -32,72 -33,74c-2,2 -43,-6 -91,-17c-123,-29 -177,-34 -267,-22c-100,13 -187,51 -232,103c-19,23 -34,44 -34,49c0,4 173,8 385,8l385,0l0,65c0,117 -47,222 -137,306c-55,52 -89,71 -172,101c-75,27 -262,34 -343,13zm317,-192c47,-25 91,-66 111,-105l15,-28l-281,0c-154,0 -280,3 -280,6c0,17 45,76 72,95c65,46 116,59 223,56c78,-2 109,-8 140,-24z"/>
    <path id="svg_122" d="m12395.392578,5100.130859c2,-7 89,-192 193,-411l188,-398l119,3l118,3l190,400c104,220 189,403 189,408c0,4 -52,6 -116,5l-115,-3l-95,-220c-53,-121 -111,-259 -131,-307c-19,-49 -38,-88 -42,-88c-4,0 -15,21 -24,48c-10,26 -68,164 -130,307l-113,260l-118,3c-93,2 -117,0 -113,-10z"/>
    <path id="svg_123" d="m3829.393066,4405.130859c-4,-3 -7,-47 -7,-98c0,-65 -4,-97 -15,-111c-8,-10 -15,-27 -15,-37c0,-31 -119,-139.999756 -190,-175.999756c-84,-42 -141,-49 -216,-26c-33,10 -66,24 -75,32c-8,7 -20,13 -25,13c-15,0 -125,100.999756 -135,123.999756c-5,12 -13,28 -18,36c-22,37 -39,128 -34,178c5,47 4,54 -11,50c-27,-5 -56,-100 -56,-185c0,-61 5,-84 32,-139.999756c31,-66 107,-172 145,-203c182,-148 191,-157 222,-224c21,-43 30,-54 34,-41c19,49 86,130 153,185c146,121 195,177 248,285c30,59.999756 28,230.999756 -3,297.999756c-23,50 -24,51 -34,40z"/>
    <path id="svg_124" d="m3192.393066,4378.130859c0,-47 46,-109 114,-154c35,-23 69,-42 76,-42c7,0 25,-7 40,-17c27,-16 31,-15 112,17c97,38 134,63 170,116c30,45 44,94 27,94c-6,0 -36,-22 -66,-49c-86,-77 -218,-134 -237,-102c-3,5 -18,12 -32,15c-38,10 -140,81 -166,116c-26,36 -38,38 -38,6z"/>
    <path id="svg_125" d="m3719.393066,4244.130859c-66,-60 -188,-113 -257,-113c-67,0 -173,45 -242,102c-26,21 -52,39 -58,39c-15,0 -2,-90 16,-111c8,-8 14,-20 14,-26c0,-12 76,-76.999756 120,-103.999756c14,-9 53,-23 88,-33c62,-17 65,-17 130,3c122,37 203,106.999756 235,204.999756c30,88 20,97 -46,38z"/>
   </g>
  </g>
  <path d="m143.45784,71.027985c2.336456,-1.869156 3.676758,-2.471298 5.607468,-3.271027c1.365219,-0.565491 2.254089,-1.629089 3.271027,-1.869156c0.909576,-0.214729 2.193207,-1.148972 2.803741,-1.401863c1.295166,-0.536472 2.267624,-0.080887 2.803741,-0.467293c0.847656,-0.61095 1.975861,0.069183 3.271027,-0.467289c0.610535,-0.252895 1.869156,-0.467289 3.271027,-0.467289c0.467285,0 2.336441,-0.467289 3.738312,-0.467289c0.93457,0 2.336441,-0.467289 3.738312,-0.467289c1.401871,0 1.826065,-0.231884 3.738312,-0.467293c1.391373,-0.171288 2.336456,0 3.738327,0c0.93457,0 1.869156,0 2.336441,0c0.467285,0 0.93457,0 1.401871,-0.467289l0.467285,0" id="svg_129" fill-opacity="null" stroke-opacity="null" stroke-width="null" stroke="null" fill="none"/>
  <path d="m164.01857,64.953224c2.336456,0 4.703735,0.877411 5.607483,1.401871c2.914459,1.691322 6.26355,3.930618 8.411209,5.607468c0.520889,0.406693 1.258194,1.021507 1.869156,1.869164c0.386398,0.536102 0.93457,0.467285 1.401871,0.934578c0.93457,0.93457 1.377808,1.541443 1.869156,2.336449c0.549332,0.888832 1.538742,0.604156 1.869156,0.934578c0.330414,0.330421 0.502853,0.75576 0.93457,0.934578c0.61055,0.252892 0.329666,1.096352 1.401871,1.869156c0.847672,0.610962 1.805252,1.470474 2.803741,2.336449c1.765076,1.530838 2.59729,2.579109 4.205597,3.738312c1.695328,1.221924 3.18866,2.096382 4.205612,2.336449c1.364365,0.322083 2.478714,0.219284 4.205597,0.934578c1.221085,0.505791 3.236359,1.167084 5.607483,1.401871c1.39505,0.138138 2.803726,0 4.205597,0c1.869156,0 2.803741,0 4.205612,0c2.336441,0 4.243103,0.322083 5.607468,0c1.016953,-0.240067 2.336441,-0.934578 2.803741,-0.934578l0.467285,0" id="svg_130" fill-opacity="null" stroke-opacity="null" stroke-width="NaN" stroke="null" fill="none"/>
  <line stroke-linecap="null" stroke-linejoin="null" id="svg_132" y2="185.046598" x2="83.644801" y1="173.831653" x1="51.401833" stroke-opacity="null" stroke-width="NaN" stroke="null" fill="none"/>
  <line stroke-linecap="null" stroke-linejoin="null" id="svg_133" y2="93.457878" x2="107.943849" y1="71.495277" x1="92.990589" stroke-opacity="null" stroke-width="NaN" stroke="null" fill="none"/>
  <path id="svg_135" d="m47.206036,171.962387c-0.635101,0 6.986111,6.075073 6.986111,6.075073c0,0 8.891415,-1.822525 8.891415,-1.822525c0,0 -15.242424,-4.252548 -15.877525,-4.252548z" stroke-opacity="null" stroke-width="NaN" stroke="null" fill="#000000"/>
  <path id="svg_138" d="m81.134315,175.247437l16.859428,-3.077118l-9.736664,6.314133l-6.2929,-2.655533z" fill-opacity="null" stroke-opacity="null" stroke-width="NaN" stroke="null" fill="#000000"/>
 </g>
</svg>